<?xml version="1.0" encoding="UTF-8" standalone="no"?>
<!-- Generator: Adobe Illustrator 19.1.0, SVG Export Plug-In . SVG Version: 6.00 Build 0)  -->

<svg
   xmlns:dc="http://purl.org/dc/elements/1.1/"
   xmlns:cc="http://creativecommons.org/ns#"
   xmlns:rdf="http://www.w3.org/1999/02/22-rdf-syntax-ns#"
   xmlns:svg="http://www.w3.org/2000/svg"
   xmlns="http://www.w3.org/2000/svg"
   xmlns:sodipodi="http://sodipodi.sourceforge.net/DTD/sodipodi-0.dtd"
   xmlns:inkscape="http://www.inkscape.org/namespaces/inkscape"
   version="1.1"
   id="Layer_1"
   x="0px"
   y="0px"
   viewBox="0 0 48 48"
   enable-background="new 0 0 72 72"
   xml:space="preserve"
   inkscape:version="0.91 r13725"
   sodipodi:docname="tag1.svg"
   width="48"
   height="48"><metadata
     id="metadata17"><rdf:RDF><cc:Work
         rdf:about=""><dc:format>image/svg+xml</dc:format><dc:type
           rdf:resource="http://purl.org/dc/dcmitype/StillImage" /><dc:title></dc:title></cc:Work></rdf:RDF></metadata><defs
     id="defs15" /><sodipodi:namedview
     pagecolor="#ffffff"
     bordercolor="#666666"
     borderopacity="1"
     objecttolerance="10"
     gridtolerance="10"
     guidetolerance="10"
     inkscape:pageopacity="0"
     inkscape:pageshadow="2"
     inkscape:window-width="1920"
     inkscape:window-height="1057"
     id="namedview13"
     showgrid="false"
     inkscape:zoom="13.111111"
     inkscape:cx="3.9595063"
     inkscape:cy="28.015381"
     inkscape:window-x="3"
     inkscape:window-y="-8"
     inkscape:window-maximized="1"
     inkscape:current-layer="Layer_1" /><style
     id="style4146"
     type="text/css">
	.st0{fill:#BDCC2A;}
</style><g
     id="g4236"
     transform="matrix(1.1018737,0,0,1.1018737,-0.61275966,6.814777)"><g
       style="stroke:#000000;stroke-opacity:1"
       transform="matrix(0.85246113,0,0,0.85246113,74.495056,-25.453642)"
       id="g7"><path
         stroke-miterlimit="10"
         d="m -51.474407,56.400644 -10.108,10.108 c -0.967,0.967 -2.536,0.967 -3.503,0 l -18.775,-18.774 c -0.442,-0.442 -0.7,-1.034 -0.724,-1.659 l -0.394,-10.502 c -0.054,-1.44 1.128,-2.622 2.568,-2.568 l 10.502,0.394 c 0.624,0.023 1.217,0.282 1.659,0.724 l 18.775,18.773 c 0.967,0.968 0.967,2.536 0,3.504 z"
         id="path9"
         inkscape:connector-curvature="0"
         style="fill:none;stroke:#000000;stroke-width:3;stroke-miterlimit:10;stroke-opacity:1" /><circle
         cx="-78.814407"
         cy="39.168644"
         r="2.1340001"
         id="circle11"
         style="fill:none;stroke:#000000;stroke-opacity:1" /></g><g
       transform="matrix(0.44758318,0,0,0.44758318,16.562887,10.532648)"
       id="g4231"><path
         style="fill:#bdcc2a"
         inkscape:connector-curvature="0"
         class="st0"
         d="m 38.109863,29.098306 -1.5,1.5 3,2.999999 1.5,-1.499999 c 4.5,-4.5 4.5,-11.9 0,-16.5 l -1.5,-1.5 -3,3 1.5,1.5 c 2.9,3 2.9,7.6 0,10.5 z"
         id="path4156" /><path
         style="fill:#bdcc2a"
         inkscape:connector-curvature="0"
         class="st0"
         d="m 43.809863,34.798305 -1.6,1.5 3,3 1.5,-1.5 c 7.7,-7.699999 7.7,-20.199999 0,-27.799999 l -1.5,-1.5 -3,3 1.5,1.5 c 6.1,6 6.1,15.8 0.1,21.799999 z"
         id="path4158" /><path
         style="fill:#bdcc2a"
         inkscape:connector-curvature="0"
         class="st0"
         d="m 49.709863,40.798305 -1.5,1.5 3,3 1.5,-1.5 c 5.3,-5.3 8.2,-12.399999 8.2,-19.899999 0,-7.5 -2.9,-14.6 -8.2,-19.9 l -1.5,-1.5 -3,3 1.5,1.5 c 9.3,9.3 9.3,24.5 0,33.799999 z"
         id="path4160" /></g><g
       style="overflow:visible"
       id="g4218"
       transform="matrix(0.04661017,0,0,0.04661017,13.80509,14.364412)"><circle
         id="circle4210"
         r="144"
         cy="144"
         cx="144"
         style="fill:#009d0d" /><polygon
         id="polygon4212"
         points="207,70.2 122.9,154.8 81,112.2 47,146.8 122.4,222.7 241,104 "
         style="fill:#ffffff" /></g></g></svg>