<?xml version="1.0" encoding="UTF-8" standalone="no"?>
<!-- Generator: Adobe Illustrator 19.1.0, SVG Export Plug-In . SVG Version: 6.00 Build 0)  -->

<svg
   xmlns:dc="http://purl.org/dc/elements/1.1/"
   xmlns:cc="http://creativecommons.org/ns#"
   xmlns:rdf="http://www.w3.org/1999/02/22-rdf-syntax-ns#"
   xmlns:svg="http://www.w3.org/2000/svg"
   xmlns="http://www.w3.org/2000/svg"
   xmlns:sodipodi="http://sodipodi.sourceforge.net/DTD/sodipodi-0.dtd"
   xmlns:inkscape="http://www.inkscape.org/namespaces/inkscape"
   version="1.1"
   id="Layer_1"
   x="0px"
   y="0px"
   viewBox="0 0 48 48"
   enable-background="new 0 0 72 72"
   xml:space="preserve"
   inkscape:version="0.91 r13725"
   sodipodi:docname="tag0.svg"
   width="48"
   height="48"><metadata
     id="metadata17"><rdf:RDF><cc:Work
         rdf:about=""><dc:format>image/svg+xml</dc:format><dc:type
           rdf:resource="http://purl.org/dc/dcmitype/StillImage" /><dc:title></dc:title></cc:Work></rdf:RDF></metadata><defs
     id="defs15" /><sodipodi:namedview
     pagecolor="#ffffff"
     bordercolor="#666666"
     borderopacity="1"
     objecttolerance="10"
     gridtolerance="10"
     guidetolerance="10"
     inkscape:pageopacity="0"
     inkscape:pageshadow="2"
     inkscape:window-width="1920"
     inkscape:window-height="1057"
     id="namedview13"
     showgrid="false"
     inkscape:zoom="13.111111"
     inkscape:cx="3.9607554"
     inkscape:cy="18.858913"
     inkscape:window-x="3"
     inkscape:window-y="-8"
     inkscape:window-maximized="1"
     inkscape:current-layer="Layer_1" /><style
     id="style4146"
     type="text/css">
	.st0{fill:#BDCC2A;}
</style><g
     id="g7"
     transform="matrix(0.9393045,0,0,0.9393045,81.471383,-21.231922)"
     style="stroke:#000000;stroke-opacity:1"><path
       style="fill:none;stroke:#000000;stroke-width:3;stroke-miterlimit:10;stroke-opacity:1"
       inkscape:connector-curvature="0"
       id="path9"
       d="m -51.474407,56.400644 -10.108,10.108 c -0.967,0.967 -2.536,0.967 -3.503,0 l -18.775,-18.774 c -0.442,-0.442 -0.7,-1.034 -0.724,-1.659 l -0.394,-10.502 c -0.054,-1.44 1.128,-2.622 2.568,-2.568 l 10.502,0.394 c 0.624,0.023 1.217,0.282 1.659,0.724 l 18.775,18.773 c 0.967,0.968 0.967,2.536 0,3.504 z"
       stroke-miterlimit="10" /><circle
       style="fill:none;stroke:#000000;stroke-opacity:1"
       id="circle11"
       r="2.1340001"
       cy="39.168644"
       cx="-78.814407" /></g><circle
     id="circle4194"
     r="7.4364409"
     cy="29.978815"
     cx="22.004238"
     style="fill:#c00d03" /><polygon
     id="polygon4196"
     points="101.8,220 143.7,177.9 185.8,219.5 220,186 177.8,143.8 220,101.5 186.2,67.2 143.7,109.6 101.5,67.5 67.8,101.2 109.6,143.8 68,186 "
     style="fill:#ffffff"
     transform="matrix(0.05164195,0,0,0.05164195,14.567798,22.542374)" /></svg>